<svg id="Layer_1" data-name="Layer 1" xmlns="http://www.w3.org/2000/svg" viewBox="0 0 1024 1024"><defs><style>.cls-1{fill:#5b66ae;}</style></defs><title>Analog</title><rect class="cls-1" width="1024" height="1024"/><path d="M513.22,965.53C259,965.05,55.89,760.05,56.28,504.36c.39-250,207.53-454.84,459.16-454,252.29.86,456.57,206.5,456.28,459.33C971.43,760.94,765.15,966,513.22,965.53ZM147.71,505.42c.48,205.12,163.52,369.13,366.62,368.82,200.84-.31,365.95-164.84,366-364.69,0-203.17-164.76-368.35-367-367.88C312.55,142.12,147.23,306.61,147.71,505.42Z"/><path d="M468.09,393.59q0-51.06,0-102.14c0-28.49,18.79-48.7,45.34-48.93s46.22,19.35,46.39,48q.6,97.59-.17,195.18c-.06,7.89,2.85,12.26,8.08,16.91Q625.51,554,683,605.74c24.42,22,22.19,57.71-4.37,74.44-17.2,10.83-38.29,10.1-53.59-3.48q-71.48-63.41-142.22-127.63c-10.53-9.52-11.84-23.18-13.21-36.21-3.18-30.25-1-60.63-1.53-90.95C468,412.47,468.09,403,468.09,393.59Z"/></svg>